<svg xmlns="http://www.w3.org/2000/svg" width="379.584" height="100.005" viewBox="0 0 379.584 100.005">
  <g id="Groupe_8276" data-name="Groupe 8276" transform="translate(-324.67 -3980.712)">
    <path id="Tracé_7110" data-name="Tracé 7110" d="M-188.33,0V-50.838h49.062v10.064h-36.26V-29.3h32.56v10.138h-32.56V0Zm56.98,0V-53.576h11.544V0Zm44.77.888A34.091,34.091,0,0,1-99.715-1.406a18.285,18.285,0,0,1-8.51-6.845,20.089,20.089,0,0,1-3-11.285,20.048,20.048,0,0,1,3-11.322,18.149,18.149,0,0,1,8.51-6.771A34.588,34.588,0,0,1-86.58-39.886a34.588,34.588,0,0,1,13.135,2.257,18.149,18.149,0,0,1,8.51,6.771,20.048,20.048,0,0,1,3,11.322,20.089,20.089,0,0,1-3,11.285,18.285,18.285,0,0,1-8.51,6.845A34.091,34.091,0,0,1-86.58.888Zm0-8.436a15.684,15.684,0,0,0,6.845-1.369A9.785,9.785,0,0,0-75.406-12.8a11.614,11.614,0,0,0,1.48-5.994v-1.48a11.566,11.566,0,0,0-1.48-6.031,9.636,9.636,0,0,0-4.329-3.811A16.057,16.057,0,0,0-86.58-31.45a16,16,0,0,0-6.882,1.332,9.67,9.67,0,0,0-4.292,3.811,11.566,11.566,0,0,0-1.48,6.031v1.48a11.614,11.614,0,0,0,1.48,5.994,9.822,9.822,0,0,0,4.292,3.885A15.628,15.628,0,0,0-86.58-7.548ZM-53.354,0V-39h9.324l.814,6.734h.592A13.672,13.672,0,0,1-40-36.149a12.107,12.107,0,0,1,3.959-2.738,12.85,12.85,0,0,1,5.18-1,19.343,19.343,0,0,1,2.664.185,13.669,13.669,0,0,1,2.442.555v9.694h-5.7a11.129,11.129,0,0,0-4.773.925,8.5,8.5,0,0,0-3.182,2.516,11.007,11.007,0,0,0-1.813,3.552,14.134,14.134,0,0,0-.592,4.107V0ZM2.738.888A37,37,0,0,1-10.656-1.295a18.1,18.1,0,0,1-8.7-6.7q-3.071-4.514-3.071-11.47a20.23,20.23,0,0,1,3-11.359,18.03,18.03,0,0,1,8.584-6.808A34.944,34.944,0,0,1,2.294-39.886a35.718,35.718,0,0,1,13.394,2.22,17.186,17.186,0,0,1,8.288,6.586,19.558,19.558,0,0,1,2.812,10.8v3.4H-10.286a9.866,9.866,0,0,0,1.85,5.513A9.193,9.193,0,0,0-3.885-8.288a21.937,21.937,0,0,0,6.845.962A18.4,18.4,0,0,0,6.7-7.733,19.593,19.593,0,0,0,10.4-8.88a9.482,9.482,0,0,0,2.923-1.887,4.291,4.291,0,0,0,1.332-2.775h11.84A10.868,10.868,0,0,1,24.864-7.77a14.1,14.1,0,0,1-4.736,4.588,25.822,25.822,0,0,1-7.511,3A41.8,41.8,0,0,1,2.738.888ZM-10.212-23.9H14.43a6.294,6.294,0,0,0-.888-3.367,7.372,7.372,0,0,0-2.553-2.442,12.79,12.79,0,0,0-3.811-1.48,21.307,21.307,0,0,0-4.662-.481,20.234,20.234,0,0,0-6.4.925,10.1,10.1,0,0,0-4.366,2.664A7.769,7.769,0,0,0-10.212-23.9ZM35.372,0V-39H44.7l.814,6.586h.666a17.452,17.452,0,0,1,4.847-4.44A19.572,19.572,0,0,1,56.8-39.183a26.973,26.973,0,0,1,6.031-.7,21.976,21.976,0,0,1,9.287,1.739A11.652,11.652,0,0,1,77.7-32.856,19.279,19.279,0,0,1,79.55-23.9V0H68.006V-22.052a10.641,10.641,0,0,0-.666-3.959,6.936,6.936,0,0,0-1.85-2.7,7.331,7.331,0,0,0-2.923-1.517,14.567,14.567,0,0,0-3.885-.481,13.026,13.026,0,0,0-5.772,1.295,11.553,11.553,0,0,0-4.329,3.552,8.67,8.67,0,0,0-1.665,5.291V0ZM106.93.888A20.572,20.572,0,0,1,99.493-.259a7.946,7.946,0,0,1-4.329-3.922,16.978,16.978,0,0,1-1.406-7.585v-18.8H86.21V-39h7.918l2.294-11.544h8.88V-39h10.73v8.436H105.3v17.316a7.075,7.075,0,0,0,1.073,4.255Q107.448-7.548,111-7.548h5.032V-.37a17.227,17.227,0,0,1-2.7.666q-1.665.3-3.4.444T106.93.888Zm17.39-45.88v-8.584h11.544v8.584ZM124.32,0V-39h11.544V0Zm21.756,0V-39H155.4l.814,6.586h.666a17.452,17.452,0,0,1,4.847-4.44,19.572,19.572,0,0,1,5.772-2.331,26.973,26.973,0,0,1,6.031-.7,21.976,21.976,0,0,1,9.287,1.739,11.652,11.652,0,0,1,5.587,5.291,19.279,19.279,0,0,1,1.85,8.954V0H178.71V-22.052a10.641,10.641,0,0,0-.666-3.959,6.936,6.936,0,0,0-1.85-2.7,7.331,7.331,0,0,0-2.923-1.517,14.567,14.567,0,0,0-3.885-.481,13.026,13.026,0,0,0-5.772,1.295,11.553,11.553,0,0,0-4.329,3.552,8.67,8.67,0,0,0-1.665,5.291V0Z" transform="translate(513.5 4034.789)" fill="none" stroke="#291f17" stroke-width="1"/>
    <path id="Tracé_7111" data-name="Tracé 7111" d="M-185.64,0V-44.655h17.485l9.165,21.515q.52,1.105,1.2,2.925t1.43,3.835q.748,2.015,1.333,3.575h.455q.52-1.43,1.235-3.315l1.43-3.77q.715-1.885,1.235-3.185l9.23-21.58h17.03V0h-11.18V-25.61q0-1.235.033-2.73t.1-2.925q.065-1.43.065-2.535h-.52q-.325,1.105-.878,2.6t-1.072,2.99q-.52,1.495-.975,2.6L-149.89,0h-10.66L-171.6-25.61q-.65-1.5-1.235-3.023t-1.008-2.893q-.422-1.365-.747-2.275h-.52q.065.845.1,2.21t.065,2.925q.033,1.56.033,3.055V0ZM-85.41.78a39.873,39.873,0,0,1-15.438-2.73,22.014,22.014,0,0,1-10.043-7.9A21.739,21.739,0,0,1-114.4-22.36a21.739,21.739,0,0,1,3.51-12.512,21.816,21.816,0,0,1,10.043-7.865,40.3,40.3,0,0,1,15.438-2.7,40.241,40.241,0,0,1,15.47,2.7,21.835,21.835,0,0,1,10.01,7.865A21.739,21.739,0,0,1-56.42-22.36,21.739,21.739,0,0,1-59.93-9.847a22.035,22.035,0,0,1-10.01,7.9A39.815,39.815,0,0,1-85.41.78Zm0-8.905A26.387,26.387,0,0,0-78.39-9a17.1,17.1,0,0,0,5.525-2.568,11.411,11.411,0,0,0,3.607-4.257,12.969,12.969,0,0,0,1.268-5.818v-1.5a12.764,12.764,0,0,0-1.268-5.785,11.482,11.482,0,0,0-3.607-4.225,17.1,17.1,0,0,0-5.525-2.568,26.386,26.386,0,0,0-7.02-.878,26.386,26.386,0,0,0-7.02.878,17.1,17.1,0,0,0-5.525,2.568,11.482,11.482,0,0,0-3.607,4.225,12.764,12.764,0,0,0-1.268,5.785v1.5a12.969,12.969,0,0,0,1.268,5.818,11.411,11.411,0,0,0,3.607,4.257A17.1,17.1,0,0,0-92.43-9,26.387,26.387,0,0,0-85.41-8.125ZM-46.41,0V-44.655h10.335l23.92,22.425a22.535,22.535,0,0,1,1.787,1.69l2.243,2.308q1.17,1.2,2.015,2.113h.585l-.163-3.25q-.1-1.95-.1-3.25V-44.655H4.94V0H-5.2L-28.925-22.425q-1.69-1.56-3.51-3.445t-2.925-3.055h-.52q.065.845.13,2.86t.065,4.55V0ZM32.24,0V-35.165H12.545v-9.49h50.5v9.49H43.42V0ZM70.72,0V-44.655h45.76v8.84H81.965v8.775H112.45v8.71H81.965V-8.9H117V0Zm56.225,0V-44.655H138.19V0ZM150.15,0V-44.655h11.245V-9.49h28.47V0Z" transform="translate(511.702 4079.438)" fill="none" stroke="#291f17" stroke-width="1"/>
  </g>
</svg>
