<svg xmlns="http://www.w3.org/2000/svg" width="618.308" height="223.768" viewBox="0 0 618.308 223.768">
  <g id="Groupe_8272" data-name="Groupe 8272" transform="translate(-7234.068 717.52)">
    <path id="Tracé_7106" data-name="Tracé 7106" d="M9.66,0V-72.135H79.275v14.28H27.825V-41.58h46.2v14.385h-46.2V0ZM90.51,0V-76.02h16.38V0Zm63.525,1.26A48.372,48.372,0,0,1,135.4-1.995a25.945,25.945,0,0,1-12.075-9.713q-4.252-6.458-4.253-16.012,0-9.66,4.253-16.065A25.752,25.752,0,0,1,135.4-53.392a49.078,49.078,0,0,1,18.637-3.2,49.078,49.078,0,0,1,18.637,3.2,25.752,25.752,0,0,1,12.075,9.607Q189-37.38,189-27.72q0,9.555-4.253,16.012a25.945,25.945,0,0,1-12.075,9.713A48.372,48.372,0,0,1,154.035,1.26Zm0-11.97a22.254,22.254,0,0,0,9.712-1.943,13.884,13.884,0,0,0,6.143-5.512,16.48,16.48,0,0,0,2.1-8.505v-2.1a16.412,16.412,0,0,0-2.1-8.558,13.673,13.673,0,0,0-6.143-5.407,22.784,22.784,0,0,0-9.712-1.89,22.7,22.7,0,0,0-9.765,1.89,13.72,13.72,0,0,0-6.09,5.407,16.412,16.412,0,0,0-2.1,8.558v2.1a16.48,16.48,0,0,0,2.1,8.505,13.936,13.936,0,0,0,6.09,5.512A22.175,22.175,0,0,0,154.035-10.71ZM201.18,0V-55.335h13.23l1.155,9.555h.84a19.4,19.4,0,0,1,3.727-5.513,17.18,17.18,0,0,1,5.618-3.885,18.234,18.234,0,0,1,7.35-1.417,27.446,27.446,0,0,1,3.78.263,19.4,19.4,0,0,1,3.465.787V-41.79H232.26a15.792,15.792,0,0,0-6.772,1.313,12.065,12.065,0,0,0-4.515,3.57,15.618,15.618,0,0,0-2.573,5.04,20.055,20.055,0,0,0-.84,5.828V0Zm79.59,1.26a52.493,52.493,0,0,1-19.005-3.1,25.686,25.686,0,0,1-12.337-9.5q-4.357-6.405-4.357-16.275,0-9.66,4.253-16.118a25.583,25.583,0,0,1,12.18-9.66,49.582,49.582,0,0,1,18.637-3.2q11.235,0,19.005,3.15A24.386,24.386,0,0,1,310.9-44.1q3.99,6.2,3.99,15.33v4.83H262.29a14,14,0,0,0,2.625,7.823,13.044,13.044,0,0,0,6.457,4.358,31.127,31.127,0,0,0,9.712,1.365,26.113,26.113,0,0,0,5.3-.578,27.8,27.8,0,0,0,5.25-1.627,13.455,13.455,0,0,0,4.148-2.678,6.088,6.088,0,0,0,1.89-3.937h16.8a15.421,15.421,0,0,1-2.31,8.19,20,20,0,0,1-6.72,6.51A36.64,36.64,0,0,1,294.788-.262,59.315,59.315,0,0,1,280.77,1.26ZM262.395-33.915H297.36a8.93,8.93,0,0,0-1.26-4.778,10.46,10.46,0,0,0-3.623-3.465,18.147,18.147,0,0,0-5.407-2.1,30.233,30.233,0,0,0-6.615-.682,28.71,28.71,0,0,0-9.082,1.313,14.338,14.338,0,0,0-6.2,3.78A11.024,11.024,0,0,0,262.395-33.915ZM327.075,0V-55.335H340.3l1.155,9.345h.945a24.763,24.763,0,0,1,6.877-6.3,27.772,27.772,0,0,1,8.19-3.307,38.273,38.273,0,0,1,8.558-1,31.183,31.183,0,0,1,13.177,2.467,16.533,16.533,0,0,1,7.927,7.508q2.625,5.04,2.625,12.7V0H373.38V-31.29a15.1,15.1,0,0,0-.945-5.618,9.841,9.841,0,0,0-2.625-3.833,10.4,10.4,0,0,0-4.148-2.152,20.67,20.67,0,0,0-5.512-.683,18.482,18.482,0,0,0-8.19,1.838,16.393,16.393,0,0,0-6.143,5.04,12.3,12.3,0,0,0-2.362,7.507V0ZM428.61,1.26A29.19,29.19,0,0,1,418.057-.368a11.275,11.275,0,0,1-6.142-5.565Q409.92-9.87,409.92-16.695v-26.67H399.21v-11.97h11.235l3.255-16.38h12.6v16.38h15.225v11.97H426.3V-18.8a10.039,10.039,0,0,0,1.523,6.038q1.522,2.047,6.563,2.047h7.14V-.525a24.444,24.444,0,0,1-3.832.945q-2.362.42-4.83.63T428.61,1.26Zm24.675-65.1V-76.02h16.38v12.18Zm0,63.84V-55.335h16.38V0Zm30.87,0V-55.335h13.23l1.155,9.345h.945a24.763,24.763,0,0,1,6.877-6.3,27.772,27.772,0,0,1,8.19-3.307,38.273,38.273,0,0,1,8.557-1,31.182,31.182,0,0,1,13.177,2.467,16.533,16.533,0,0,1,7.928,7.508q2.625,5.04,2.625,12.7V0H530.46V-31.29a15.1,15.1,0,0,0-.945-5.618,9.841,9.841,0,0,0-2.625-3.833,10.4,10.4,0,0,0-4.148-2.152,20.67,20.67,0,0,0-5.513-.683,18.482,18.482,0,0,0-8.19,1.838A16.393,16.393,0,0,0,502.9-36.7a12.3,12.3,0,0,0-2.362,7.507V0Z" transform="translate(7242 -626)" fill="currentColor"/>
    <path id="Tracé_7107" data-name="Tracé 7107" d="M9.66,0V-72.135H79.275v14.28H27.825V-41.58h46.2v14.385h-46.2V0ZM90.51,0V-76.02h16.38V0Zm63.525,1.26A48.372,48.372,0,0,1,135.4-1.995a25.945,25.945,0,0,1-12.075-9.713q-4.252-6.458-4.253-16.012,0-9.66,4.253-16.065A25.752,25.752,0,0,1,135.4-53.392a49.078,49.078,0,0,1,18.637-3.2,49.078,49.078,0,0,1,18.637,3.2,25.752,25.752,0,0,1,12.075,9.607Q189-37.38,189-27.72q0,9.555-4.253,16.012a25.945,25.945,0,0,1-12.075,9.713A48.372,48.372,0,0,1,154.035,1.26Zm0-11.97a22.254,22.254,0,0,0,9.712-1.943,13.884,13.884,0,0,0,6.143-5.512,16.48,16.48,0,0,0,2.1-8.505v-2.1a16.412,16.412,0,0,0-2.1-8.558,13.673,13.673,0,0,0-6.143-5.407,22.784,22.784,0,0,0-9.712-1.89,22.7,22.7,0,0,0-9.765,1.89,13.72,13.72,0,0,0-6.09,5.407,16.412,16.412,0,0,0-2.1,8.558v2.1a16.48,16.48,0,0,0,2.1,8.505,13.936,13.936,0,0,0,6.09,5.512A22.175,22.175,0,0,0,154.035-10.71ZM201.18,0V-55.335h13.23l1.155,9.555h.84a19.4,19.4,0,0,1,3.727-5.513,17.18,17.18,0,0,1,5.618-3.885,18.234,18.234,0,0,1,7.35-1.417,27.446,27.446,0,0,1,3.78.263,19.4,19.4,0,0,1,3.465.787V-41.79H232.26a15.792,15.792,0,0,0-6.772,1.313,12.065,12.065,0,0,0-4.515,3.57,15.618,15.618,0,0,0-2.573,5.04,20.055,20.055,0,0,0-.84,5.828V0Zm79.59,1.26a52.493,52.493,0,0,1-19.005-3.1,25.686,25.686,0,0,1-12.337-9.5q-4.357-6.405-4.357-16.275,0-9.66,4.253-16.118a25.583,25.583,0,0,1,12.18-9.66,49.582,49.582,0,0,1,18.637-3.2q11.235,0,19.005,3.15A24.386,24.386,0,0,1,310.9-44.1q3.99,6.2,3.99,15.33v4.83H262.29a14,14,0,0,0,2.625,7.823,13.044,13.044,0,0,0,6.457,4.358,31.127,31.127,0,0,0,9.712,1.365,26.113,26.113,0,0,0,5.3-.578,27.8,27.8,0,0,0,5.25-1.627,13.455,13.455,0,0,0,4.148-2.678,6.088,6.088,0,0,0,1.89-3.937h16.8a15.421,15.421,0,0,1-2.31,8.19,20,20,0,0,1-6.72,6.51A36.64,36.64,0,0,1,294.788-.262,59.315,59.315,0,0,1,280.77,1.26ZM262.395-33.915H297.36a8.93,8.93,0,0,0-1.26-4.778,10.46,10.46,0,0,0-3.623-3.465,18.147,18.147,0,0,0-5.407-2.1,30.233,30.233,0,0,0-6.615-.682,28.71,28.71,0,0,0-9.082,1.313,14.338,14.338,0,0,0-6.2,3.78A11.024,11.024,0,0,0,262.395-33.915ZM327.075,0V-55.335H340.3l1.155,9.345h.945a24.763,24.763,0,0,1,6.877-6.3,27.772,27.772,0,0,1,8.19-3.307,38.273,38.273,0,0,1,8.558-1,31.183,31.183,0,0,1,13.177,2.467,16.533,16.533,0,0,1,7.927,7.508q2.625,5.04,2.625,12.7V0H373.38V-31.29a15.1,15.1,0,0,0-.945-5.618,9.841,9.841,0,0,0-2.625-3.833,10.4,10.4,0,0,0-4.148-2.152,20.67,20.67,0,0,0-5.512-.683,18.482,18.482,0,0,0-8.19,1.838,16.393,16.393,0,0,0-6.143,5.04,12.3,12.3,0,0,0-2.362,7.507V0ZM428.61,1.26A29.19,29.19,0,0,1,418.057-.368a11.275,11.275,0,0,1-6.142-5.565Q409.92-9.87,409.92-16.695v-26.67H399.21v-11.97h11.235l3.255-16.38h12.6v16.38h15.225v11.97H426.3V-18.8a10.039,10.039,0,0,0,1.523,6.038q1.522,2.047,6.563,2.047h7.14V-.525a24.444,24.444,0,0,1-3.832.945q-2.362.42-4.83.63T428.61,1.26Zm24.675-65.1V-76.02h16.38v12.18Zm0,63.84V-55.335h16.38V0Zm30.87,0V-55.335h13.23l1.155,9.345h.945a24.763,24.763,0,0,1,6.877-6.3,27.772,27.772,0,0,1,8.19-3.307,38.273,38.273,0,0,1,8.557-1,31.182,31.182,0,0,1,13.177,2.467,16.533,16.533,0,0,1,7.928,7.508q2.625,5.04,2.625,12.7V0H530.46V-31.29a15.1,15.1,0,0,0-.945-5.618,9.841,9.841,0,0,0-2.625-3.833,10.4,10.4,0,0,0-4.148-2.152,20.67,20.67,0,0,0-5.513-.683,18.482,18.482,0,0,0-8.19,1.838A16.393,16.393,0,0,0,502.9-36.7a12.3,12.3,0,0,0-2.362,7.507V0Z" transform="translate(7225 -641)" fill="none" stroke="currentColor" stroke-width="1"/>
    <path id="Tracé_7108" data-name="Tracé 7108" d="M9.568,0V-71.448H37.544L52.208-37.024q.832,1.768,1.924,4.68t2.288,6.136q1.2,3.224,2.132,5.72h.728q.832-2.288,1.976-5.3l2.288-6.032q1.144-3.016,1.976-5.1L80.288-71.448h27.248V0H89.648V-40.976q0-1.976.052-4.368t.156-4.68q.1-2.288.1-4.056h-.832q-.52,1.768-1.4,4.16t-1.716,4.784q-.832,2.392-1.56,4.16L66.768,0H49.712L32.032-40.976q-1.04-2.392-1.976-4.836T28.444-50.44q-.676-2.184-1.2-3.64h-.832q.1,1.352.156,3.536t.1,4.68q.052,2.5.052,4.888V0ZM169.936,1.248q-14.248,0-24.7-4.368a35.223,35.223,0,0,1-16.068-12.636q-5.616-8.268-5.616-20.02t5.616-20.02A34.905,34.905,0,0,1,145.236-68.38q10.452-4.316,24.7-4.316,14.352,0,24.752,4.316A34.936,34.936,0,0,1,210.7-55.8q5.616,8.268,5.616,20.02T210.7-15.756A35.255,35.255,0,0,1,194.688-3.12Q184.288,1.248,169.936,1.248Zm0-14.248a42.219,42.219,0,0,0,11.232-1.4,27.355,27.355,0,0,0,8.84-4.108,18.258,18.258,0,0,0,5.772-6.812,20.75,20.75,0,0,0,2.028-9.308v-2.392a20.422,20.422,0,0,0-2.028-9.256,18.371,18.371,0,0,0-5.772-6.76,27.355,27.355,0,0,0-8.84-4.108,42.218,42.218,0,0,0-11.232-1.4,42.218,42.218,0,0,0-11.232,1.4,27.355,27.355,0,0,0-8.84,4.108,18.371,18.371,0,0,0-5.772,6.76,20.422,20.422,0,0,0-2.028,9.256v2.392a20.75,20.75,0,0,0,2.028,9.308,18.257,18.257,0,0,0,5.772,6.812A27.356,27.356,0,0,0,158.7-14.4,42.218,42.218,0,0,0,169.936-13Zm62.4,13V-71.448h16.536l38.272,35.88a36.06,36.06,0,0,1,2.86,2.7q1.716,1.768,3.588,3.692t3.224,3.38h.936l-.26-5.2q-.156-3.12-.156-5.2V-71.448H314.5V0H298.272l-37.96-35.88q-2.7-2.5-5.616-5.512t-4.68-4.888h-.832q.1,1.352.208,4.576t.1,7.28V0Zm125.84,0V-56.264H326.664V-71.448h80.808v15.184H376.064V0Zm61.568,0V-71.448H492.96V-57.3H437.736v14.04h48.776v13.936H437.736v15.08h56.056V0ZM509.7,0V-71.448H527.7V0Zm37.128,0V-71.448h17.992v56.264h45.552V0Z" transform="translate(7242 -495)" fill="currentColor"/>
    <path id="Tracé_7109" data-name="Tracé 7109" d="M9.568,0V-71.448H37.544L52.208-37.024q.832,1.768,1.924,4.68t2.288,6.136q1.2,3.224,2.132,5.72h.728q.832-2.288,1.976-5.3l2.288-6.032q1.144-3.016,1.976-5.1L80.288-71.448h27.248V0H89.648V-40.976q0-1.976.052-4.368t.156-4.68q.1-2.288.1-4.056h-.832q-.52,1.768-1.4,4.16t-1.716,4.784q-.832,2.392-1.56,4.16L66.768,0H49.712L32.032-40.976q-1.04-2.392-1.976-4.836T28.444-50.44q-.676-2.184-1.2-3.64h-.832q.1,1.352.156,3.536t.1,4.68q.052,2.5.052,4.888V0ZM169.936,1.248q-14.248,0-24.7-4.368a35.223,35.223,0,0,1-16.068-12.636q-5.616-8.268-5.616-20.02t5.616-20.02A34.905,34.905,0,0,1,145.236-68.38q10.452-4.316,24.7-4.316,14.352,0,24.752,4.316A34.936,34.936,0,0,1,210.7-55.8q5.616,8.268,5.616,20.02T210.7-15.756A35.255,35.255,0,0,1,194.688-3.12Q184.288,1.248,169.936,1.248Zm0-14.248a42.219,42.219,0,0,0,11.232-1.4,27.355,27.355,0,0,0,8.84-4.108,18.258,18.258,0,0,0,5.772-6.812,20.75,20.75,0,0,0,2.028-9.308v-2.392a20.422,20.422,0,0,0-2.028-9.256,18.371,18.371,0,0,0-5.772-6.76,27.355,27.355,0,0,0-8.84-4.108,42.218,42.218,0,0,0-11.232-1.4,42.218,42.218,0,0,0-11.232,1.4,27.355,27.355,0,0,0-8.84,4.108,18.371,18.371,0,0,0-5.772,6.76,20.422,20.422,0,0,0-2.028,9.256v2.392a20.75,20.75,0,0,0,2.028,9.308,18.257,18.257,0,0,0,5.772,6.812A27.356,27.356,0,0,0,158.7-14.4,42.218,42.218,0,0,0,169.936-13Zm62.4,13V-71.448h16.536l38.272,35.88a36.06,36.06,0,0,1,2.86,2.7q1.716,1.768,3.588,3.692t3.224,3.38h.936l-.26-5.2q-.156-3.12-.156-5.2V-71.448H314.5V0H298.272l-37.96-35.88q-2.7-2.5-5.616-5.512t-4.68-4.888h-.832q.1,1.352.208,4.576t.1,7.28V0Zm125.84,0V-56.264H326.664V-71.448h80.808v15.184H376.064V0Zm61.568,0V-71.448H492.96V-57.3H437.736v14.04h48.776v13.936H437.736v15.08h56.056V0ZM509.7,0V-71.448H527.7V0Zm37.128,0V-71.448h17.992v56.264h45.552V0Z" transform="translate(7225 -516)" fill="none" stroke="currentColor" stroke-width="1"/>
  </g>
</svg>
