<svg xmlns="http://www.w3.org/2000/svg" width="1845.913" height="120.968" viewBox="0 0 1845.913 120.968">
  <g id="Groupe_8275" data-name="Groupe 8275" transform="translate(-197.496 -3897.488)">
    <path id="Florentin" d="M665.366,2.456c-6.661,0-12.234-.862-16.564-2.561A18.065,18.065,0,0,1,639-8.984a27.4,27.4,0,0,1-2.368-7.368,53.043,53.043,0,0,1-.783-9.565v-40.9H619.226V-86.4h17.531l5.053-25.428h20.47V-86.4h23.635v19.582H662.28v37.642c0,4,.762,7.053,2.265,9.074,1.469,1.975,4.761,2.977,9.786,2.977h11.584V-.463l-.332.119a38.62,38.62,0,0,1-6.03,1.488c-2.448.435-4.986.766-7.543.984S667.219,2.456,665.366,2.456Zm-45.14-70.275h16.626v41.9c0,6.951,1.024,12.5,3.043,16.481a17.412,17.412,0,0,0,3.822,5.071,17.683,17.683,0,0,0,5.45,3.328c4.214,1.654,9.664,2.492,16.2,2.492,1.825,0,4.031-.109,6.559-.324S676.959.59,679.378.16a39.524,39.524,0,0,0,5.537-1.331V-16.126H674.331a22.666,22.666,0,0,1-6.608-.817,7.615,7.615,0,0,1-3.981-2.563c-1.634-2.2-2.462-5.451-2.462-9.671V-67.819h23.635V-85.4H661.28v-25.428H642.631L637.578-85.4H620.226ZM435.862,2.456a100.151,100.151,0,0,1-16.014-1.209,68.2,68.2,0,0,1-13.67-3.634,44.608,44.608,0,0,1-11.106-6.162,38.145,38.145,0,0,1-8.279-8.774,37.491,37.491,0,0,1-5.143-11.44,54.748,54.748,0,0,1-1.708-14.107,54.592,54.592,0,0,1,1.667-13.881,38.571,38.571,0,0,1,5.017-11.415,37.973,37.973,0,0,1,8.135-8.878,44.459,44.459,0,0,1,11-6.307,65.879,65.879,0,0,1,13.489-3.758,92.787,92.787,0,0,1,15.631-1.25,99.624,99.624,0,0,1,16.178,1.229,63.88,63.88,0,0,1,13.513,3.7,43.374,43.374,0,0,1,10.718,6.144,35.42,35.42,0,0,1,7.77,8.556,37.531,37.531,0,0,1,4.709,10.9,52.439,52.439,0,0,1,1.565,13.166v8H407.712a21.021,21.021,0,0,0,3.933,11.338,19.853,19.853,0,0,0,9.785,6.6,48.057,48.057,0,0,0,14.921,2.094,40.228,40.228,0,0,0,8.13-.886,42.857,42.857,0,0,0,8.056-2.5,20.487,20.487,0,0,0,6.286-4.056,9.005,9.005,0,0,0,2.784-5.8l.041-.455h27.037v.5a24.541,24.541,0,0,1-3.659,12.975,31.686,31.686,0,0,1-10.6,10.27A57.637,57.637,0,0,1,457.741.078,93.007,93.007,0,0,1,435.862,2.456Zm-.978-89.813a91.8,91.8,0,0,0-15.461,1.236,64.883,64.883,0,0,0-13.284,3.7,43.464,43.464,0,0,0-10.757,6.163,36.977,36.977,0,0,0-7.921,8.644,37.576,37.576,0,0,0-4.885,11.12,53.592,53.592,0,0,0-1.634,13.626,53.751,53.751,0,0,0,1.674,13.848,36.492,36.492,0,0,0,5,11.136,37.142,37.142,0,0,0,8.062,8.544A43.613,43.613,0,0,0,406.54-3.319,67.21,67.21,0,0,0,420.009.26a99.153,99.153,0,0,0,15.853,1.2A92.016,92.016,0,0,0,457.5-.893a56.647,56.647,0,0,0,16.4-6.541,30.7,30.7,0,0,0,10.269-9.942,23.537,23.537,0,0,0,3.508-11.953H462.552a9.96,9.96,0,0,1-3.033,5.972,21.479,21.479,0,0,1-6.591,4.258,43.861,43.861,0,0,1-8.244,2.556,41.221,41.221,0,0,1-8.333.907,49.038,49.038,0,0,1-15.234-2.144,20.83,20.83,0,0,1-10.264-6.934c-2.441-3.163-3.847-7.34-4.178-12.416l-.035-.533h81.7v-7A51.448,51.448,0,0,0,486.8-57.576a36.535,36.535,0,0,0-4.582-10.613,34.42,34.42,0,0,0-7.552-8.315,42.378,42.378,0,0,0-10.472-6,62.884,62.884,0,0,0-13.3-3.638A98.619,98.619,0,0,0,434.884-87.357ZM239.121,2.456a91.861,91.861,0,0,1-15.714-1.271A63.365,63.365,0,0,1,210-2.635,44.729,44.729,0,0,1,199.117-9a38.761,38.761,0,0,1-8.091-8.9,38.642,38.642,0,0,1-5.017-11.373,53.77,53.77,0,0,1-1.667-13.759,54.356,54.356,0,0,1,1.667-13.861,38.06,38.06,0,0,1,5.018-11.355,38.378,38.378,0,0,1,8.092-8.815A44.52,44.52,0,0,1,210-83.348a64.149,64.149,0,0,1,13.41-3.759,99.367,99.367,0,0,1,31.425,0,64.156,64.156,0,0,1,13.41,3.759,44.523,44.523,0,0,1,10.88,6.286,38.378,38.378,0,0,1,8.092,8.815,38.057,38.057,0,0,1,5.018,11.355A54.356,54.356,0,0,1,293.9-43.032a53.771,53.771,0,0,1-1.667,13.759A38.642,38.642,0,0,1,287.216-17.9,38.761,38.761,0,0,1,279.125-9a44.729,44.729,0,0,1-10.879,6.368,63.364,63.364,0,0,1-13.411,3.821A91.861,91.861,0,0,1,239.121,2.456Zm0-89.813a92.32,92.32,0,0,0-15.543,1.236,63.148,63.148,0,0,0-13.2,3.7,43.524,43.524,0,0,0-10.636,6.143,37.385,37.385,0,0,0-7.882,8.585,37.065,37.065,0,0,0-4.884,11.058,53.356,53.356,0,0,0-1.634,13.6,52.774,52.774,0,0,0,1.634,13.5,37.647,37.647,0,0,0,4.885,11.08,37.765,37.765,0,0,0,7.883,8.667,43.728,43.728,0,0,0,10.637,6.224A62.352,62.352,0,0,0,223.579.2a90.86,90.86,0,0,0,15.542,1.256A90.861,90.861,0,0,0,254.663.2a62.351,62.351,0,0,0,13.2-3.759A43.727,43.727,0,0,0,278.5-9.783a37.765,37.765,0,0,0,7.883-8.667,37.646,37.646,0,0,0,4.885-11.08,52.778,52.778,0,0,0,1.634-13.5,53.362,53.362,0,0,0-1.634-13.6,37.065,37.065,0,0,0-4.884-11.058A37.385,37.385,0,0,0,278.5-76.28a43.528,43.528,0,0,0-10.636-6.143,63.155,63.155,0,0,0-13.2-3.7A92.322,92.322,0,0,0,239.121-87.357ZM849.4.5H822.976V-48.574a23.06,23.06,0,0,0-1.431-8.535,14.854,14.854,0,0,0-3.94-5.759,15.727,15.727,0,0,0-6.243-3.236,31.738,31.738,0,0,0-8.424-1.041,28.329,28.329,0,0,0-12.5,2.8,25.069,25.069,0,0,0-9.352,7.671,17.871,17.871,0,0,0-2.676,5.253,20.328,20.328,0,0,0-.894,6.105V.5H751.093V-86.4h21.48l1.793,14.507h.779A39,39,0,0,1,785.809-81.6,43.816,43.816,0,0,1,798.67-86.8a60.2,60.2,0,0,1,13.4-1.561,61.908,61.908,0,0,1,11.319.966,39.364,39.364,0,0,1,9.349,2.911,27.439,27.439,0,0,1,7.325,4.919,26.225,26.225,0,0,1,5.214,6.958,34.561,34.561,0,0,1,3.1,8.973A54.621,54.621,0,0,1,849.4-52.649Zm-25.428-1H848.4V-52.649A53.616,53.616,0,0,0,847.4-63.428a33.565,33.565,0,0,0-3.01-8.713,25.227,25.227,0,0,0-5.014-6.694,26.44,26.44,0,0,0-7.06-4.739,38.368,38.368,0,0,0-9.111-2.835,60.91,60.91,0,0,0-11.135-.949,59.2,59.2,0,0,0-13.173,1.536,42.815,42.815,0,0,0-12.567,5.075,38.122,38.122,0,0,0-10.537,9.655l-.15.2h-2.156L771.689-85.4h-19.6V-.5h24.428V-45.314a19.671,19.671,0,0,1,3.765-11.951,26.057,26.057,0,0,1,9.719-7.977,29.32,29.32,0,0,1,12.933-2.9,32.729,32.729,0,0,1,8.691,1.078,16.717,16.717,0,0,1,6.634,3.447,15.841,15.841,0,0,1,4.21,6.14,24.043,24.043,0,0,1,1.5,8.906ZM729.6.5H703.171V-86.4H729.6Zm-25.428-1H728.6V-85.4H704.171ZM605.556.5H579.128V-48.574a23.058,23.058,0,0,0-1.431-8.535,14.853,14.853,0,0,0-3.94-5.759,15.729,15.729,0,0,0-6.243-3.236,31.739,31.739,0,0,0-8.424-1.041,28.328,28.328,0,0,0-12.5,2.8,25.07,25.07,0,0,0-9.352,7.671,17.869,17.869,0,0,0-2.676,5.253,20.325,20.325,0,0,0-.894,6.105V.5H507.245V-86.4h21.48l1.793,14.507h.778A39,39,0,0,1,541.961-81.6a43.814,43.814,0,0,1,12.86-5.194,60.2,60.2,0,0,1,13.4-1.561,61.909,61.909,0,0,1,11.319.966,39.366,39.366,0,0,1,9.349,2.911,27.436,27.436,0,0,1,7.325,4.919,26.224,26.224,0,0,1,5.214,6.958,34.561,34.561,0,0,1,3.1,8.973,54.617,54.617,0,0,1,1.029,10.981Zm-25.428-1h24.428V-52.649a53.621,53.621,0,0,0-1.008-10.779,33.565,33.565,0,0,0-3.01-8.713,25.231,25.231,0,0,0-5.014-6.694,26.443,26.443,0,0,0-7.06-4.739,38.371,38.371,0,0,0-9.111-2.835,60.912,60.912,0,0,0-11.135-.949,59.2,59.2,0,0,0-13.173,1.536,42.813,42.813,0,0,0-12.567,5.075,38.121,38.121,0,0,0-10.537,9.655l-.15.2h-2.156L527.841-85.4h-19.6V-.5h24.428V-45.314a19.671,19.671,0,0,1,3.765-11.951,26.057,26.057,0,0,1,9.719-7.977,29.319,29.319,0,0,1,12.933-2.9,32.728,32.728,0,0,1,8.691,1.078,16.716,16.716,0,0,1,6.634,3.447,15.841,15.841,0,0,1,4.21,6.14,24.038,24.038,0,0,1,1.5,8.906ZM338.236.5H311.808V-86.4h21.481l.053.44,1.74,14.393h.539a30.778,30.778,0,0,1,5.747-8.4,27.29,27.29,0,0,1,8.882-6.144,28.932,28.932,0,0,1,11.61-2.242,43.294,43.294,0,0,1,5.937.412,30.744,30.744,0,0,1,5.468,1.243l.342.114v22.213H360.556a24.139,24.139,0,0,0-10.3,1.99,18.319,18.319,0,0,0-6.826,5.394,23.859,23.859,0,0,0-3.912,7.664,30.777,30.777,0,0,0-1.283,8.9Zm-25.428-1h24.428V-40.424a31.777,31.777,0,0,1,1.325-9.191,24.857,24.857,0,0,1,4.076-7.984,19.311,19.311,0,0,1,7.192-5.69,25.118,25.118,0,0,1,10.727-2.085h12.051v-20.49a30.215,30.215,0,0,0-4.948-1.09,42.313,42.313,0,0,0-5.8-.4A27.939,27.939,0,0,0,350.65-85.2a26.294,26.294,0,0,0-8.559,5.918,29.758,29.758,0,0,0-5.691,8.416l-.132.3H334.2L332.4-85.4H312.808ZM166.434.5H140.006V-118.512h26.428Zm-25.428-1h24.428V-117.512H141.006ZM43.695.5H14.5V-112.481H123.565v23.168H43.695v24.265h71.72v23.331H43.695ZM15.5-.5h27.2V-42.717h71.72V-64.048H42.695V-90.313h79.87v-21.168H15.5ZM239.121-16.126a35.072,35.072,0,0,1-15.378-3.066,22.224,22.224,0,0,1-9.666-8.753A26.19,26.19,0,0,1,210.748-41.4v-3.26A26.082,26.082,0,0,1,214.079-58.2a21.886,21.886,0,0,1,9.669-8.59,35.9,35.9,0,0,1,15.373-2.982,36.024,36.024,0,0,1,15.289,2.981,21.812,21.812,0,0,1,9.753,8.591,26.082,26.082,0,0,1,3.331,13.541v3.26a26.19,26.19,0,0,1-3.329,13.457,22.141,22.141,0,0,1-9.75,8.755A35.2,35.2,0,0,1,239.121-16.126Zm0-52.649a34.92,34.92,0,0,0-14.945,2.886,20.9,20.9,0,0,0-9.239,8.2,25.1,25.1,0,0,0-3.189,13.028v3.26a25.208,25.208,0,0,0,3.191,12.949,21.24,21.24,0,0,0,9.242,8.361,34.093,34.093,0,0,0,14.94,2.965,34.215,34.215,0,0,0,14.861-2.966,21.159,21.159,0,0,0,9.321-8.36A25.207,25.207,0,0,0,266.494-41.4v-3.26A25.1,25.1,0,0,0,263.3-57.69a20.83,20.83,0,0,0-9.318-8.2A35.044,35.044,0,0,0,239.121-68.775ZM462.116-52.149h-55.36l.087-.575a17.682,17.682,0,0,1,4.445-9.472,22.847,22.847,0,0,1,9.828-6,45.27,45.27,0,0,1,14.258-2.063,47.652,47.652,0,0,1,10.378,1.072,28.8,28.8,0,0,1,8.542,3.319,16.8,16.8,0,0,1,5.792,5.546,14.416,14.416,0,0,1,2.03,7.679Zm-54.189-1h53.181a13.249,13.249,0,0,0-1.875-6.655,15.819,15.819,0,0,0-5.455-5.212,27.805,27.805,0,0,0-8.247-3.2,46.651,46.651,0,0,0-10.16-1.047,44.279,44.279,0,0,0-13.941,2.012,21.869,21.869,0,0,0-9.406,5.731A16.6,16.6,0,0,0,407.927-53.149ZM729.6-98.6H703.171v-19.908H729.6Zm-25.428-1H728.6v-17.908H704.171Z" transform="translate(183 4016)" fill="#291f17"/>
    <path id="MONTEIL" d="M263.074,2.432A119.357,119.357,0,0,1,242.4.734a84.128,84.128,0,0,1-17.755-5.1,61.9,61.9,0,0,1-14.425-8.34,50.889,50.889,0,0,1-10.67-11.4A48.837,48.837,0,0,1,192.96-38.4a62.97,62.97,0,0,1-2.192-16.98,62.969,62.969,0,0,1,2.192-16.98,48.837,48.837,0,0,1,6.588-14.294A50.511,50.511,0,0,1,210.219-98.04a61.283,61.283,0,0,1,14.426-8.28,84.892,84.892,0,0,1,17.754-5.042,120.748,120.748,0,0,1,20.674-1.678,121.622,121.622,0,0,1,20.774,1.678,84.02,84.02,0,0,1,17.735,5.042,61.126,61.126,0,0,1,14.366,8.28A50.723,50.723,0,0,1,326.6-86.657a48.837,48.837,0,0,1,6.588,14.294,62.969,62.969,0,0,1,2.192,16.98,62.969,62.969,0,0,1-2.192,16.98A48.837,48.837,0,0,1,326.6-24.111a51.1,51.1,0,0,1-10.649,11.4,61.75,61.75,0,0,1-14.365,8.34,83.256,83.256,0,0,1-17.736,5.1A120.21,120.21,0,0,1,263.074,2.432Zm0-114.471a119.76,119.76,0,0,0-20.5,1.663,83.9,83.9,0,0,0-17.545,4.981,60.285,60.285,0,0,0-14.191,8.143A49.509,49.509,0,0,0,200.376-86.1a47.838,47.838,0,0,0-6.453,14,61.975,61.975,0,0,0-2.155,16.71,61.973,61.973,0,0,0,2.155,16.71,47.837,47.837,0,0,0,6.453,14,49.89,49.89,0,0,0,10.461,11.178,60.906,60.906,0,0,0,14.193,8.2,83.134,83.134,0,0,0,17.544,5.04,118.367,118.367,0,0,0,20.5,1.683,119.211,119.211,0,0,0,20.6-1.683A82.258,82.258,0,0,0,301.2-5.291a60.753,60.753,0,0,0,14.132-8.2,50.1,50.1,0,0,0,10.442-11.179,47.838,47.838,0,0,0,6.453-14,61.974,61.974,0,0,0,2.155-16.71,61.975,61.975,0,0,0-2.155-16.71,47.839,47.839,0,0,0-6.453-14,49.721,49.721,0,0,0-10.441-11.158A60.134,60.134,0,0,0,301.2-105.4a83.032,83.032,0,0,0-17.524-4.98A120.626,120.626,0,0,0,263.074-112.039ZM945.409.5H846.038V-111.107h28.853v87.1h70.518Zm-98.371-1h97.371V-23.006H873.891v-87.1H847.038ZM817.414.5H788.561V-111.107h28.853Zm-27.853-1h26.853V-110.107H789.561ZM764.928.5H649.3V-111.107H763.64v22.9H678.149v20.735h75.509V-44.9H678.149v22.345h86.779ZM650.3-.5H763.928V-21.557H677.149V-45.9h75.509V-66.476H677.149V-89.211H762.64v-20.9H650.3Zm-67.62,1H553.984V-86.6H505.2v-24.506H631.3V-86.6H582.676Zm-27.692-1h26.692V-87.6H630.3v-22.506H506.2V-87.6h48.783Zm-67.62,1H461.549L461.4.363,402.644-55.178c-2.783-2.569-5.715-5.447-8.714-8.553-2.91-3.014-5.3-5.508-7.1-7.414h-.536c.095,1.437.191,3.642.285,6.568.107,3.317.161,7.114.161,11.286V.5H359.174V-111.107h26.3l.144.135,59.237,55.535a56.723,56.723,0,0,1,4.455,4.213c1.746,1.8,3.615,3.722,5.554,5.715,1.858,1.909,3.488,3.618,4.851,5.081h.705l-.376-7.525c-.161-3.215-.242-5.932-.242-8.075v-55.079h27.565Zm-25.417-1h24.417V-110.107H460.8v54.079c0,2.127.081,4.827.241,8.025l.429,8.575h-2.193l-.148-.16c-1.386-1.493-3.063-3.25-4.983-5.224-1.939-1.993-3.808-3.917-5.555-5.716a55.636,55.636,0,0,0-4.385-4.147l-.025-.022-59.1-55.41h-24.9V-.5h25.565V-53.291c0-4.161-.054-7.947-.161-11.254s-.215-5.681-.321-7.062l-.041-.538h2.043l.148.157c1.817,1.924,4.253,4.468,7.241,7.563s5.9,5.957,8.674,8.513l0,0ZM166.974.5H138.282V-63.434c0-2.034.027-4.312.081-6.773s.135-4.9.242-7.257c.1-2.13.15-4.063.159-5.756h-.414c-.527,1.752-1.225,3.806-2.077,6.113-.907,2.453-1.8,4.942-2.653,7.4s-1.673,4.64-2.425,6.466l0,.008L103.691.5H76.629L76.5.2,49.129-63.236c-1.071-2.464-2.1-4.99-3.067-7.506s-1.808-4.941-2.506-7.2c-.641-2.072-1.222-3.847-1.727-5.283h-.4c.089,1.322.157,2.987.2,4.962.053,2.244.108,4.682.161,7.246s.081,5.117.081,7.577V.5H14.312V-111.107H58.451l.13.3,22.7,53.281c.86,1.828,1.866,4.276,2.991,7.275,1.119,2.983,2.311,6.18,3.543,9.5,1.18,3.181,2.249,6.048,3.178,8.529h.431c.829-2.275,1.818-4.927,2.941-7.888L97.9-49.443c1.177-3.1,2.207-5.759,3.062-7.9l0-.011,22.992-53.755h43.012Zm-27.692-1h26.692V-110.107H124.622L101.891-56.962c-.852,2.132-1.88,4.78-3.053,7.873L95.3-39.751c-1.176,3.1-2.2,5.862-3.057,8.2l-.12.329H90.3l-.122-.324c-.958-2.555-2.069-5.535-3.3-8.857s-2.423-6.515-3.541-9.5S81.219-55.3,80.37-57.1l-.008-.017L57.79-110.107H15.312V-.5H40.877V-63.434c0-2.454-.027-5-.08-7.557s-.108-5-.161-7.243S40.5-82.3,40.4-83.682l-.041-.538h2.18l.118.332c.537,1.5,1.163,3.407,1.858,5.655S46.039-73.6,47-71.1s1.985,5.014,3.051,7.466L77.287-.5h25.746l27.238-63.127c.744-1.808,1.553-3.965,2.4-6.411s1.751-4.956,2.66-7.415,1.632-4.6,2.163-6.408l.106-.359h2.162v.5c0,1.824-.054,3.944-.161,6.3s-.188,4.783-.241,7.233-.08,4.725-.08,6.751ZM263.074-19.625a66.161,66.161,0,0,1-17.521-2.191,43.041,43.041,0,0,1-13.845-6.436,28.886,28.886,0,0,1-9.091-10.73,32.762,32.762,0,0,1-3.191-14.631v-3.7a32.251,32.251,0,0,1,3.192-14.553,29.062,29.062,0,0,1,9.09-10.647,43.039,43.039,0,0,1,13.845-6.436,66.159,66.159,0,0,1,17.521-2.192,66.16,66.16,0,0,1,17.521,2.192,43.04,43.04,0,0,1,13.845,6.436,29.061,29.061,0,0,1,9.09,10.647,32.253,32.253,0,0,1,3.192,14.553v3.7a32.764,32.764,0,0,1-3.191,14.631,28.886,28.886,0,0,1-9.091,10.73,43.041,43.041,0,0,1-13.845,6.436A66.162,66.162,0,0,1,263.074-19.625Zm0-70.518a65.17,65.17,0,0,0-17.255,2.156A42.052,42.052,0,0,0,232.294-81.7a28.074,28.074,0,0,0-8.781,10.283,31.265,31.265,0,0,0-3.087,14.105v3.7a31.775,31.775,0,0,0,3.088,14.188,27.9,27.9,0,0,0,8.78,10.362,42.051,42.051,0,0,0,13.525,6.283,65.167,65.167,0,0,0,17.255,2.155,65.168,65.168,0,0,0,17.255-2.155,42.055,42.055,0,0,0,13.525-6.283,27.9,27.9,0,0,0,8.78-10.362,31.776,31.776,0,0,0,3.088-14.188v-3.7a31.267,31.267,0,0,0-3.087-14.105A28.074,28.074,0,0,0,293.854-81.7a42.05,42.05,0,0,0-13.525-6.283A65.171,65.171,0,0,0,263.074-90.143Z" transform="translate(1098 4016)" fill="#291f17"/>
  </g>
</svg>
