<svg id="Groupe_2" data-name="Groupe 2" xmlns="http://www.w3.org/2000/svg" xmlns:xlink="http://www.w3.org/1999/xlink" width="411.539" height="482.553" viewBox="0 0 411.539 482.553">
  <defs>
    <clipPath id="clip-path">
      <rect id="Rectangle_1" data-name="Rectangle 1" width="411.539" height="482.553" fill="#f4f3f0"/>
    </clipPath>
  </defs>
  <g id="Groupe_1" data-name="Groupe 1" clip-path="url(#clip-path)">
    <path id="Tracé_1" data-name="Tracé 1" d="M400.138,126.387a18.4,18.4,0,0,0-20.125,4l-81.547,81.545L91.952,5.422A18.468,18.468,0,0,0,60.424,18.478V157.135l-28.9-28.9A18.467,18.467,0,0,0,0,141.293V367.686A18.341,18.341,0,0,0,5.41,380.744L101.8,477.133a18.468,18.468,0,0,0,31.525-13.267l-1.6-139.6,57.2,57.2a23.6,23.6,0,0,0,33.328,0l55.693-55.691V463.416a18.467,18.467,0,0,0,31.464,13.121l96.655-95.76a18.578,18.578,0,0,0,5.469-13.119V143.448a18.412,18.412,0,0,0-11.4-17.061M77.663,18.478a1.23,1.23,0,0,1,2.1-.869L286.28,224.124l-30.643,30.642L115.584,114.714v97.579L77.663,174.372ZM243.449,266.954l-36.6,36.6-74.313-74.312h.287V156.33ZM394.3,367.658a1.235,1.235,0,0,1-.364.875l-96.653,95.758a1.118,1.118,0,0,1-1.341.261,1.1,1.1,0,0,1-.756-1.136V284.163l-85.117,85.119a6.345,6.345,0,0,1-8.953,0L54.77,222.93V356.683l17.237,19.392V264.546l42.285,42.285,1.795,157.229a1.231,1.231,0,0,1-2.1.886L17.6,368.557a1.233,1.233,0,0,1-.359-.871V141.293A1.1,1.1,0,0,1,18,140.157a1.4,1.4,0,0,1,.531-.116,1.115,1.115,0,0,1,.812.383l187.507,187.51L392.2,142.579a1.092,1.092,0,0,1,1.343-.267,1.1,1.1,0,0,1,.76,1.136Z" fill="#f4f3f0"/>
    <path id="Tracé_2" data-name="Tracé 2" d="M336.126,371.765l17.237-17.237V220.939l-17.237,23.7Z" fill="#f4f3f0"/>
  </g>
</svg>
